<?xml version="1.0" standalone="no"?>
<!DOCTYPE svg PUBLIC "-//W3C//DTD SVG 20010904//EN"
 "http://www.w3.org/TR/2001/REC-SVG-20010904/DTD/svg10.dtd">
<svg version="1.0" xmlns="http://www.w3.org/2000/svg"
 width="128.000000pt" height="127.000000pt" viewBox="0 0 128.000000 127.000000"
 preserveAspectRatio="xMidYMid meet">
<g transform="translate(0.000000,127.000000) scale(0.100000,-0.100000)"
fill="currentColor" stroke="none">
<path d="M480 1096 l-144 -145 39 -35 40 -35 107 107 108 107 32 -33 33 -32
-138 -137 -137 -138 -70 70 -70 70 -133 -133 -132 -132 170 -170 170 -170 202
195 c111 107 206 195 210 195 4 0 67 -59 140 -132 l132 -132 83 79 c46 43 96
91 111 105 l28 26 -306 305 c-168 167 -311 305 -318 307 -7 1 -77 -63 -157
-142z m628 -465 c1 -4 -11 -20 -28 -36 l-30 -28 -134 131 c-75 73 -139 132
-144 132 -4 0 -28 -21 -52 -46 -25 -25 -103 -100 -173 -166 l-128 -121 -64 63
-65 64 -33 -32 -33 -32 -27 28 c-15 15 -27 32 -27 37 0 5 26 35 57 67 l57 58
68 -67 67 -66 177 171 176 172 167 -162 c91 -88 167 -164 169 -167z"/>
<path d="M182 1117 l-42 -43 45 -44 45 -44 45 44 45 45 -40 43 c-21 23 -43 42
-48 42 -4 0 -27 -19 -50 -43z"/>
<path d="M992 1117 l-42 -43 45 -44 45 -44 47 47 47 47 -39 40 c-21 22 -44 40
-50 40 -6 0 -30 -19 -53 -43z"/>
<path d="M660 459 l-105 -98 40 -41 39 -40 66 65 66 65 32 -33 33 -34 -99 -91
-99 -91 -71 72 -72 72 -37 -38 -38 -37 110 -110 110 -110 173 172 172 173 -92
93 c-51 51 -100 96 -108 101 -11 7 -42 -16 -120 -90z"/>
<path d="M182 237 l-42 -43 45 -44 45 -44 45 44 45 44 -42 43 c-23 24 -45 43
-48 43 -3 0 -25 -19 -48 -43z"/>
<path d="M995 240 c-42 -43 -42 -45 20 -101 l30 -28 43 42 42 41 -42 43 c-23
24 -45 43 -48 43 -3 0 -23 -18 -45 -40z"/>
</g>
</svg>
